<mxfile host="app.diagrams.net" agent="Mozilla/5.0 (Windows NT 10.0; Win64; x64; rv:138.0) Gecko/20100101 Firefox/138.0" version="27.0.8">
  <diagram name="Page-1" id="BJphIBug15_Bq6EKupdH">
    <mxGraphModel dx="784" dy="1118" grid="1" gridSize="10" guides="1" tooltips="1" connect="1" arrows="1" fold="1" page="1" pageScale="1" pageWidth="850" pageHeight="1100" math="0" shadow="0">
      <root>
        <mxCell id="0" />
        <mxCell id="1" parent="0" />
        <mxCell id="a-swa4iT-PRNFVWg0zEb-6" value="" style="edgeStyle=orthogonalEdgeStyle;rounded=0;orthogonalLoop=1;jettySize=auto;html=1;exitX=0;exitY=0.75;exitDx=0;exitDy=0;entryX=0.957;entryY=0.786;entryDx=0;entryDy=0;entryPerimeter=0;curved=1;" parent="1" source="a-swa4iT-PRNFVWg0zEb-1" target="a-swa4iT-PRNFVWg0zEb-10" edge="1">
          <mxGeometry relative="1" as="geometry">
            <mxPoint x="350" y="370" as="targetPoint" />
            <Array as="points" />
          </mxGeometry>
        </mxCell>
        <mxCell id="a-swa4iT-PRNFVWg0zEb-8" value="Resposta" style="edgeLabel;html=1;align=center;verticalAlign=middle;resizable=0;points=[];" parent="a-swa4iT-PRNFVWg0zEb-6" vertex="1" connectable="0">
          <mxGeometry x="0.2" relative="1" as="geometry">
            <mxPoint x="19" y="-10" as="offset" />
          </mxGeometry>
        </mxCell>
        <mxCell id="a-swa4iT-PRNFVWg0zEb-18" style="edgeStyle=orthogonalEdgeStyle;rounded=0;orthogonalLoop=1;jettySize=auto;html=1;entryX=0;entryY=0.5;entryDx=0;entryDy=0;startArrow=classic;startFill=1;curved=1;" parent="1" source="a-swa4iT-PRNFVWg0zEb-1" target="a-swa4iT-PRNFVWg0zEb-17" edge="1">
          <mxGeometry relative="1" as="geometry">
            <Array as="points">
              <mxPoint x="640" y="310" />
              <mxPoint x="640" y="310" />
            </Array>
          </mxGeometry>
        </mxCell>
        <mxCell id="a-swa4iT-PRNFVWg0zEb-1" value="Servidor" style="image;html=1;image=img/lib/clip_art/computers/Server_128x128.png" parent="1" vertex="1">
          <mxGeometry x="523" y="270" width="80" height="80" as="geometry" />
        </mxCell>
        <mxCell id="a-swa4iT-PRNFVWg0zEb-2" value="&lt;div&gt;Client (PC)&lt;/div&gt;" style="image;html=1;image=img/lib/clip_art/computers/iMac_128x128.png" parent="1" vertex="1">
          <mxGeometry x="125" y="310" width="80" height="80" as="geometry" />
        </mxCell>
        <mxCell id="a-swa4iT-PRNFVWg0zEb-9" value="" style="shape=mxgraph.networks2.icon;aspect=fixed;fillColor=#EDEDED;strokeColor=#000000;gradientColor=#5B6163;network2IconShadow=1;network2bgFillColor=none;network2Icon=mxgraph.networks2.vr;network2IconYOffset=-0.015;network2IconW=1;network2IconH=0.45;" parent="1" vertex="1">
          <mxGeometry x="140" y="237.5" width="50" height="22.5" as="geometry" />
        </mxCell>
        <mxCell id="a-swa4iT-PRNFVWg0zEb-13" style="edgeStyle=orthogonalEdgeStyle;rounded=0;orthogonalLoop=1;jettySize=auto;html=1;entryX=0;entryY=0.25;entryDx=0;entryDy=0;curved=1;" parent="1" source="a-swa4iT-PRNFVWg0zEb-10" target="a-swa4iT-PRNFVWg0zEb-1" edge="1">
          <mxGeometry relative="1" as="geometry">
            <Array as="points">
              <mxPoint x="330" y="290" />
              <mxPoint x="330" y="290" />
            </Array>
          </mxGeometry>
        </mxCell>
        <mxCell id="a-swa4iT-PRNFVWg0zEb-14" value="&lt;div&gt;SolÂ·licitud&lt;/div&gt;" style="edgeLabel;html=1;align=center;verticalAlign=middle;resizable=0;points=[];" parent="a-swa4iT-PRNFVWg0zEb-13" vertex="1" connectable="0">
          <mxGeometry x="-0.1895" y="3" relative="1" as="geometry">
            <mxPoint x="10" y="-12" as="offset" />
          </mxGeometry>
        </mxCell>
        <mxCell id="a-swa4iT-PRNFVWg0zEb-10" value="Navegador" style="html=1;verticalLabelPosition=bottom;align=center;labelBackgroundColor=#ffffff;verticalAlign=top;strokeWidth=2;strokeColor=#0080F0;shadow=0;dashed=0;shape=mxgraph.ios7.icons.globe;" parent="1" vertex="1">
          <mxGeometry x="263" y="275" width="70" height="70" as="geometry" />
        </mxCell>
        <mxCell id="a-swa4iT-PRNFVWg0zEb-12" value="Client (Ulleres RV)" style="text;html=1;align=center;verticalAlign=middle;whiteSpace=wrap;rounded=0;" parent="1" vertex="1">
          <mxGeometry x="110" y="260" width="110" height="30" as="geometry" />
        </mxCell>
        <mxCell id="a-swa4iT-PRNFVWg0zEb-15" style="rounded=0;orthogonalLoop=1;jettySize=auto;html=1;startArrow=classic;startFill=1;entryX=0.057;entryY=0.171;entryDx=0;entryDy=0;entryPerimeter=0;exitX=0.882;exitY=-0.1;exitDx=0;exitDy=0;exitPerimeter=0;" parent="1" source="a-swa4iT-PRNFVWg0zEb-12" target="a-swa4iT-PRNFVWg0zEb-10" edge="1">
          <mxGeometry relative="1" as="geometry">
            <mxPoint x="210" y="250" as="sourcePoint" />
            <mxPoint x="280" y="280" as="targetPoint" />
          </mxGeometry>
        </mxCell>
        <mxCell id="a-swa4iT-PRNFVWg0zEb-16" style="rounded=0;orthogonalLoop=1;jettySize=auto;html=1;entryX=1;entryY=0.5;entryDx=0;entryDy=0;startArrow=classic;startFill=1;exitX=0.043;exitY=0.814;exitDx=0;exitDy=0;exitPerimeter=0;" parent="1" source="a-swa4iT-PRNFVWg0zEb-10" target="a-swa4iT-PRNFVWg0zEb-2" edge="1">
          <mxGeometry relative="1" as="geometry">
            <mxPoint x="370" y="220" as="sourcePoint" />
            <mxPoint x="455" y="254" as="targetPoint" />
          </mxGeometry>
        </mxCell>
        <mxCell id="a-swa4iT-PRNFVWg0zEb-17" value="Base de dades" style="image;html=1;image=img/lib/clip_art/computers/Database_128x128.png" parent="1" vertex="1">
          <mxGeometry x="680" y="275" width="70" height="70" as="geometry" />
        </mxCell>
      </root>
    </mxGraphModel>
  </diagram>
</mxfile>
